# xmcd
#
# Track frame offsets:
#	182
#	14817
#	26482
#	39085
#	50307
#	65195
#	79867
#	97922
#	112797
#	126480
#	144820
#	156332
#	170040
#	186922
#	200912
#	217097
#
# Disc length: 3082
#
# Revision: 1
# Processed by: cddbd v1.5.1PL0 Copyright (c) Steve Scherf et al.
# Submitted via: VisiTrax 2.9.5.180 - For more info visit www.synapsa.com
# Normalized: r0:DSETVAR1
#
DISCID=e70c0810
DTITLE=Various Artist - Top of the Charts
DYEAR=1993
DGENRE=Country
TTITLE0=Judds, The - Mama He`s Crazy
TTITLE1=Vince Gill - Take Your Memory With You
TTITLE2=Tracy Lawrence - My Second Home
TTITLE3=Reba McEntire - Can't Even Get the Blues
TTITLE4=Steve Wariner - I Got Dreams
TTITLE5=Rosanne Cash - My Baby Thinks He's a Train
TTITLE6=Hank Williams, Jr. - All My Rowdy Friends (Have Settled Down)
TTITLE7=T. Graham Brown - Darlene
TTITLE8=John Anderson - Swingin'
TTITLE9=K. T. Oslin - Do Ya
TTITLE10=Tracy Byrd - Holdin' Heaven
TTITLE11=Randy Travis - Diggin' Up Bones
TTITLE12=Gary Morris - 100% Chance of Rain
TTITLE13=Willie Nelson - My Heroes Have Always Been Cowboys
TTITLE14=Lorrie Morgan - Five Minutes
TTITLE15=Eddie Rabbitt - I Love a Rainy Night
EXTD=
EXTT0=
EXTT1=
EXTT2=
EXTT3=
EXTT4=
EXTT5=
EXTT6=
EXTT7=
EXTT8=
EXTT9=
EXTT10=
EXTT11=
EXTT12=
EXTT13=
EXTT14=
EXTT15=
PLAYORDER=
